# xmcd
#
# Track frame offsets:
#	150
#	17912
#	35090
#	46572
#	62542
#	78072
#	93625
#	109920
#	127687
#	142480
#	155065
#	171937
#
# Disc length: 2501 seconds
#
# Revision: 1
# Processed by: cddbd v1.4b41PL2 Copyright (c) Steve Scherf et al.
# Submitted via: audiograbber 1.80
#
DISCID=9d09c30c
DTITLE=Johnny Mathis - 99 Miles From L.A.
DYEAR=1900
DGENRE=
TTITLE0=You Light Up My Fire
TTITLE1=Do You Know Where You're Going To
TTITLE2=Laughter In The Rain
TTITLE3=Mandy
TTITLE4=When I Need You
TTITLE5=I'm Coming Home
TTITLE6=99 Miles From L.A.
TTITLE7=I Write The Songs
TTITLE8=Love Theme From 'A Star Is Born' (Evergreen)
TTITLE9=What I Did For Love
TTITLE10=How Deep Is Your Love
TTITLE11=Feelings
EXTD=
EXTT0=
EXTT1=
EXTT2=
EXTT3=
EXTT4=
EXTT5=
EXTT6=
EXTT7=
EXTT8=
EXTT9=
EXTT10=
EXTT11=
PLAYORDER=
